<mxfile host="app.diagrams.net" modified="2024-03-13T15:15:50.995Z" agent="Mozilla/5.0 (Windows NT 10.0; Win64; x64) AppleWebKit/537.36 (KHTML, like Gecko) Chrome/122.0.0.0 Safari/537.36" etag="-YJ2j6gUWOIQt12I64Cf" version="24.0.5" type="device">
  <diagram name="Страница — 1" id="vKzcICYAuj3FIxDBDaqX">
    <mxGraphModel dx="1221" dy="647" grid="1" gridSize="10" guides="1" tooltips="1" connect="1" arrows="1" fold="1" page="1" pageScale="1" pageWidth="827" pageHeight="1169" math="0" shadow="0">
      <root>
        <mxCell id="0" />
        <mxCell id="1" parent="0" />
        <mxCell id="s0yITyZ-xia7wwoqmMOy-1" value="Неавторизованный&lt;div&gt;пользователь&lt;/div&gt;" style="shape=umlActor;verticalLabelPosition=bottom;verticalAlign=top;html=1;outlineConnect=0;" vertex="1" parent="1">
          <mxGeometry x="110" y="120" width="30" height="60" as="geometry" />
        </mxCell>
        <mxCell id="s0yITyZ-xia7wwoqmMOy-7" value="" style="edgeStyle=orthogonalEdgeStyle;rounded=0;orthogonalLoop=1;jettySize=auto;html=1;dashed=1;" edge="1" parent="1" source="s0yITyZ-xia7wwoqmMOy-5" target="s0yITyZ-xia7wwoqmMOy-6">
          <mxGeometry relative="1" as="geometry" />
        </mxCell>
        <mxCell id="s0yITyZ-xia7wwoqmMOy-21" value="&amp;lt;&amp;lt;Include&amp;gt;&amp;gt;" style="edgeLabel;html=1;align=center;verticalAlign=middle;resizable=0;points=[];" vertex="1" connectable="0" parent="s0yITyZ-xia7wwoqmMOy-7">
          <mxGeometry x="-0.2083" relative="1" as="geometry">
            <mxPoint x="10" y="150" as="offset" />
          </mxGeometry>
        </mxCell>
        <mxCell id="s0yITyZ-xia7wwoqmMOy-19" style="edgeStyle=orthogonalEdgeStyle;rounded=0;orthogonalLoop=1;jettySize=auto;html=1;entryX=0;entryY=0.5;entryDx=0;entryDy=0;" edge="1" parent="1" source="s0yITyZ-xia7wwoqmMOy-1" target="s0yITyZ-xia7wwoqmMOy-5">
          <mxGeometry relative="1" as="geometry">
            <Array as="points">
              <mxPoint x="200" y="150" />
              <mxPoint x="200" y="60" />
            </Array>
          </mxGeometry>
        </mxCell>
        <mxCell id="s0yITyZ-xia7wwoqmMOy-5" value="Авторизоваться" style="ellipse;whiteSpace=wrap;html=1;" vertex="1" parent="1">
          <mxGeometry x="250" y="20" width="120" height="80" as="geometry" />
        </mxCell>
        <mxCell id="s0yITyZ-xia7wwoqmMOy-9" value="" style="edgeStyle=orthogonalEdgeStyle;rounded=0;orthogonalLoop=1;jettySize=auto;html=1;dashed=1;endArrow=none;endFill=0;startArrow=classic;startFill=1;" edge="1" parent="1" source="s0yITyZ-xia7wwoqmMOy-6" target="s0yITyZ-xia7wwoqmMOy-8">
          <mxGeometry relative="1" as="geometry" />
        </mxCell>
        <mxCell id="s0yITyZ-xia7wwoqmMOy-27" value="&amp;lt;&amp;lt;Extended&amp;gt;&amp;gt;" style="edgeLabel;html=1;align=center;verticalAlign=middle;resizable=0;points=[];" vertex="1" connectable="0" parent="s0yITyZ-xia7wwoqmMOy-9">
          <mxGeometry x="-0.1083" y="-1" relative="1" as="geometry">
            <mxPoint x="4" y="-11" as="offset" />
          </mxGeometry>
        </mxCell>
        <mxCell id="s0yITyZ-xia7wwoqmMOy-6" value="Ввести логин и пароль" style="ellipse;whiteSpace=wrap;html=1;" vertex="1" parent="1">
          <mxGeometry x="450" y="20" width="120" height="80" as="geometry" />
        </mxCell>
        <mxCell id="s0yITyZ-xia7wwoqmMOy-8" value="Получить ошибку о неправильном логине/пароле" style="ellipse;whiteSpace=wrap;html=1;" vertex="1" parent="1">
          <mxGeometry x="650" y="20" width="140" height="80" as="geometry" />
        </mxCell>
        <mxCell id="s0yITyZ-xia7wwoqmMOy-13" value="" style="edgeStyle=orthogonalEdgeStyle;rounded=0;orthogonalLoop=1;jettySize=auto;html=1;dashed=1;" edge="1" parent="1" source="s0yITyZ-xia7wwoqmMOy-11" target="s0yITyZ-xia7wwoqmMOy-12">
          <mxGeometry relative="1" as="geometry" />
        </mxCell>
        <mxCell id="s0yITyZ-xia7wwoqmMOy-18" style="edgeStyle=orthogonalEdgeStyle;rounded=0;orthogonalLoop=1;jettySize=auto;html=1;exitX=0;exitY=0.5;exitDx=0;exitDy=0;endArrow=none;endFill=0;startArrow=classic;startFill=1;" edge="1" parent="1" source="s0yITyZ-xia7wwoqmMOy-11" target="s0yITyZ-xia7wwoqmMOy-1">
          <mxGeometry relative="1" as="geometry">
            <Array as="points">
              <mxPoint x="200" y="220" />
              <mxPoint x="200" y="150" />
            </Array>
          </mxGeometry>
        </mxCell>
        <mxCell id="s0yITyZ-xia7wwoqmMOy-11" value="Зарегистрироваться" style="ellipse;whiteSpace=wrap;html=1;" vertex="1" parent="1">
          <mxGeometry x="240" y="180" width="140" height="80" as="geometry" />
        </mxCell>
        <mxCell id="s0yITyZ-xia7wwoqmMOy-15" value="" style="edgeStyle=orthogonalEdgeStyle;rounded=0;orthogonalLoop=1;jettySize=auto;html=1;dashed=1;endArrow=none;endFill=0;startArrow=classic;startFill=1;" edge="1" parent="1" source="s0yITyZ-xia7wwoqmMOy-12" target="s0yITyZ-xia7wwoqmMOy-14">
          <mxGeometry relative="1" as="geometry" />
        </mxCell>
        <mxCell id="s0yITyZ-xia7wwoqmMOy-23" value="&amp;lt;&amp;lt;Extended&amp;gt;&amp;gt;" style="edgeLabel;html=1;align=center;verticalAlign=middle;resizable=0;points=[];" vertex="1" connectable="0" parent="s0yITyZ-xia7wwoqmMOy-15">
          <mxGeometry x="-0.2741" y="-4" relative="1" as="geometry">
            <mxPoint x="17" y="-14" as="offset" />
          </mxGeometry>
        </mxCell>
        <mxCell id="s0yITyZ-xia7wwoqmMOy-20" style="edgeStyle=orthogonalEdgeStyle;rounded=0;orthogonalLoop=1;jettySize=auto;html=1;exitX=0.5;exitY=0;exitDx=0;exitDy=0;dashed=1;" edge="1" parent="1" source="s0yITyZ-xia7wwoqmMOy-12" target="s0yITyZ-xia7wwoqmMOy-6">
          <mxGeometry relative="1" as="geometry">
            <Array as="points">
              <mxPoint x="520" y="130" />
              <mxPoint x="520" y="130" />
            </Array>
          </mxGeometry>
        </mxCell>
        <mxCell id="s0yITyZ-xia7wwoqmMOy-12" value="Ввести личный  идентификатор" style="ellipse;whiteSpace=wrap;html=1;" vertex="1" parent="1">
          <mxGeometry x="450" y="180" width="140" height="80" as="geometry" />
        </mxCell>
        <mxCell id="s0yITyZ-xia7wwoqmMOy-14" value="Получить ошибку о неправильном  идентификторе" style="ellipse;whiteSpace=wrap;html=1;" vertex="1" parent="1">
          <mxGeometry x="680" y="180" width="140" height="80" as="geometry" />
        </mxCell>
        <mxCell id="s0yITyZ-xia7wwoqmMOy-22" value="&amp;lt;&amp;lt;Include&amp;gt;&amp;gt;" style="edgeLabel;html=1;align=center;verticalAlign=middle;resizable=0;points=[];" vertex="1" connectable="0" parent="1">
          <mxGeometry x="410" y="50" as="geometry">
            <mxPoint x="4" as="offset" />
          </mxGeometry>
        </mxCell>
        <mxCell id="s0yITyZ-xia7wwoqmMOy-28" value="&amp;lt;&amp;lt;Include&amp;gt;&amp;gt;" style="edgeLabel;html=1;align=center;verticalAlign=middle;resizable=0;points=[];" vertex="1" connectable="0" parent="1">
          <mxGeometry x="520" y="150" as="geometry">
            <mxPoint x="4" as="offset" />
          </mxGeometry>
        </mxCell>
      </root>
    </mxGraphModel>
  </diagram>
</mxfile>
